<svg xmlns="http://www.w3.org/2000/svg" viewBox="0 0 300 104" role="img" aria-label="AML">
  <defs>
    <linearGradient id="amlA" x1="0" y1="100%" x2="100%" y2="0">
      <stop offset="0" stop-color="#184e9b"/>
      <stop offset="0.45" stop-color="#10aee5"/>
      <stop offset="1" stop-color="#d8f4ff"/>
    </linearGradient>
    <linearGradient id="amlB" x1="0" y1="100%" x2="100%" y2="0">
      <stop offset="0" stop-color="#0f4b99"/>
      <stop offset="0.52" stop-color="#9cd3e6"/>
      <stop offset="1" stop-color="#ffffff"/>
    </linearGradient>
    <linearGradient id="amlStar" x1="0" y1="100%" x2="100%" y2="0">
      <stop offset="0" stop-color="#2160a9"/>
      <stop offset="0.55" stop-color="#55b8df"/>
      <stop offset="1" stop-color="#ffffff"/>
    </linearGradient>
  </defs>
  <g fill="none" fill-rule="evenodd">
    <path fill="url(#amlA)" d="M5 88 42 15c4-8 15-8 19 0l37 73H77L52 36 27 88H5z"/>
    <path fill="url(#amlB)" d="M105 88V16c0-9 11-13 17-7l40 40 40-40c6-6 17-2 17 7v72h-21V39l-30 30c-4 4-9 4-13 0l-30-30v49h-20z"/>
    <path fill="url(#amlA)" d="M230 9h21v60h44v19h-65V9z"/>
    <g fill="url(#amlStar)" transform="translate(236)">
      <path d="M38 0h9v31h-9z"/>
      <path d="M38 47h9v31h-9z"/>
      <path d="M4 34h31v9H4z"/>
      <path d="M51 34h31v9H51z"/>
      <path d="m17.2 10.8 6.4-6.4 22 22-6.4 6.4z"/>
      <path d="m45.8 39.4 6.4-6.4 22 22-6.4 6.4z"/>
      <path d="m61.8 10.8 6.4 6.4-22 22-6.4-6.4z"/>
      <path d="m33.2 39.4 6.4 6.4-22 22-6.4-6.4z"/>
    </g>
  </g>
</svg>
