<svg width="194" height="70" viewBox="0 0 194 70" fill="none" xmlns="http://www.w3.org/2000/svg">
<path d="M31.053 32V12.4H38.361C39.929 12.4 41.2263 12.6613 42.253 13.184C43.2797 13.7067 44.045 14.4253 44.549 15.34C45.0717 16.2547 45.333 17.2907 45.333 18.448C45.333 19.4933 45.081 20.4733 44.577 21.388C44.0917 22.3027 43.3357 23.04 42.309 23.6C41.2823 24.16 39.9663 24.44 38.361 24.44H34.693V32H31.053ZM34.693 21.5H38.137C39.369 21.5 40.2557 21.2293 40.797 20.688C41.357 20.128 41.637 19.3813 41.637 18.448C41.637 17.4773 41.357 16.7213 40.797 16.18C40.2557 15.6387 39.369 15.368 38.137 15.368H34.693V21.5ZM47.2613 32V18.112H50.9013V20.24C51.2559 19.5307 51.7133 18.98 52.2733 18.588C52.8333 18.1773 53.4773 17.972 54.2053 17.972H55.9693V21.22H53.8413C53.1693 21.22 52.6093 21.3973 52.1613 21.752C51.7319 22.1067 51.4146 22.6387 51.2093 23.348C51.0039 24.0573 50.9013 24.9347 50.9013 25.98V32H47.2613ZM63.4468 32.336C62.0468 32.336 60.7868 32.028 59.6668 31.412C58.5468 30.796 57.6601 29.9373 57.0068 28.836C56.3535 27.7347 56.0268 26.4747 56.0268 25.056C56.0268 23.6187 56.3535 22.3587 57.0068 21.276C57.6601 20.1747 58.5468 19.316 59.6668 18.7C60.8055 18.084 62.0655 17.776 63.4468 17.776C64.8468 17.776 66.1068 18.084 67.2268 18.7C68.3468 19.316 69.2335 20.1747 69.8868 21.276C70.5401 22.3587 70.8668 23.6187 70.8668 25.056C70.8668 26.4747 70.5401 27.7347 69.8868 28.836C69.2335 29.9373 68.3468 30.796 67.2268 31.412C66.1068 32.028 64.8468 32.336 63.4468 32.336ZM63.4468 29.2C64.1188 29.2 64.7348 29.0507 65.2948 28.752C65.8548 28.4347 66.2935 27.968 66.6108 27.352C66.9468 26.736 67.1148 25.9707 67.1148 25.056C67.1148 24.1413 66.9468 23.376 66.6108 22.76C66.2748 22.144 65.8268 21.6867 65.2668 21.388C64.7255 21.0707 64.1281 20.912 63.4748 20.912C62.8028 20.912 62.1868 21.0707 61.6268 21.388C61.0668 21.7053 60.6188 22.172 60.2828 22.788C59.9468 23.3853 59.7788 24.1413 59.7788 25.056C59.7788 25.9707 59.9375 26.736 60.2548 27.352C60.5908 27.968 61.0388 28.4347 61.5988 28.752C62.1588 29.0507 62.7748 29.2 63.4468 29.2ZM78.9636 32.336C77.657 32.336 76.481 32.0187 75.4356 31.384C74.409 30.7493 73.597 29.8813 72.9996 28.78C72.4023 27.66 72.1036 26.4093 72.1036 25.028C72.1036 23.628 72.4023 22.3867 72.9996 21.304C73.597 20.2027 74.409 19.344 75.4356 18.728C76.481 18.0933 77.657 17.776 78.9636 17.776C80.009 17.776 80.9143 17.972 81.6796 18.364C82.4636 18.756 83.089 19.2973 83.5556 19.988V11.84H87.1956V32H83.5556V30.012C83.1263 30.628 82.5383 31.1693 81.7916 31.636C81.0636 32.1027 80.121 32.336 78.9636 32.336ZM79.7476 29.172C80.513 29.172 81.185 28.9947 81.7636 28.64C82.361 28.2853 82.8183 27.8 83.1356 27.184C83.4716 26.5493 83.6396 25.84 83.6396 25.056C83.6396 24.2533 83.4716 23.544 83.1356 22.928C82.8183 22.312 82.361 21.8267 81.7636 21.472C81.185 21.1173 80.513 20.94 79.7476 20.94C79.001 20.94 78.329 21.1173 77.7316 21.472C77.1343 21.8267 76.6676 22.312 76.3316 22.928C75.9956 23.5253 75.8276 24.2253 75.8276 25.028C75.8276 25.8307 75.9956 26.5493 76.3316 27.184C76.6676 27.8 77.1343 28.2853 77.7316 28.64C78.329 28.9947 79.001 29.172 79.7476 29.172ZM94.3794 32.336C92.7927 32.336 91.5327 31.7947 90.5994 30.712C89.6847 29.6107 89.2274 28.0147 89.2274 25.924V18.112H92.8674V25.588C92.8674 26.7827 93.0914 27.6973 93.5394 28.332C94.006 28.948 94.678 29.256 95.5554 29.256C96.5447 29.256 97.31 28.9107 97.8514 28.22C98.3927 27.5107 98.6634 26.5307 98.6634 25.28V18.112H102.303V32H98.6634V29.956C98.2527 30.684 97.6927 31.2627 96.9834 31.692C96.274 32.1213 95.406 32.336 94.3794 32.336ZM111.294 32.336C109.875 32.336 108.615 32.028 107.514 31.412C106.431 30.7773 105.572 29.9187 104.938 28.836C104.322 27.7347 104.014 26.4747 104.014 25.056C104.014 23.6373 104.322 22.3867 104.938 21.304C105.572 20.2027 106.431 19.344 107.514 18.728C108.615 18.0933 109.875 17.776 111.294 17.776C113.067 17.776 114.56 18.2427 115.774 19.176C116.987 20.0907 117.762 21.36 118.098 22.984H114.262C114.094 22.3493 113.739 21.8453 113.198 21.472C112.656 21.08 112.012 20.884 111.266 20.884C110.631 20.884 110.043 21.052 109.502 21.388C108.96 21.724 108.531 22.2 108.214 22.816C107.896 23.432 107.738 24.1787 107.738 25.056C107.738 25.9147 107.896 26.6613 108.214 27.296C108.531 27.9307 108.96 28.416 109.502 28.752C110.043 29.0693 110.631 29.228 111.266 29.228C112.012 29.228 112.656 29.0507 113.198 28.696C113.739 28.3227 114.094 27.8 114.262 27.128H118.098C117.78 28.696 117.006 29.956 115.774 30.908C114.56 31.86 113.067 32.336 111.294 32.336ZM125.296 32C124.363 32 123.57 31.8973 122.916 31.692C122.282 31.468 121.806 31.048 121.488 30.432C121.171 29.7973 121.012 28.892 121.012 27.716V21.164H118.632V18.112H121.012V14.388H124.652V18.112H128.152V21.164H124.652V27.268C124.652 27.7347 124.699 28.0893 124.792 28.332C124.886 28.556 125.063 28.7053 125.324 28.78C125.586 28.8547 125.94 28.892 126.388 28.892H128.068V32H125.296ZM129.593 32V18.112H133.233V32H129.593ZM129.677 15.816V12.288H133.205V15.816H129.677ZM139.923 32L134.799 18.112H138.635L142.135 28.556L145.607 18.112H149.415L144.319 32H139.923ZM156.657 32.336C155.238 32.336 153.988 32.0373 152.905 31.44C151.822 30.824 150.973 29.984 150.357 28.92C149.741 27.8373 149.433 26.5867 149.433 25.168C149.433 23.7307 149.732 22.452 150.329 21.332C150.945 20.212 151.794 19.344 152.877 18.728C153.96 18.0933 155.22 17.776 156.657 17.776C158.038 17.776 159.252 18.0747 160.297 18.672C161.342 19.2693 162.154 20.0813 162.733 21.108C163.33 22.1347 163.629 23.3013 163.629 24.608C163.629 24.7947 163.629 25 163.629 25.224C163.629 25.448 163.61 25.6813 163.573 25.924H152.065V23.684H159.961C159.905 22.788 159.569 22.0693 158.953 21.528C158.337 20.9867 157.581 20.716 156.685 20.716C156.013 20.716 155.397 20.8653 154.837 21.164C154.277 21.4627 153.829 21.9107 153.493 22.508C153.176 23.0867 153.017 23.8333 153.017 24.748V25.532C153.017 26.316 153.176 26.9973 153.493 27.576C153.81 28.1547 154.24 28.6027 154.781 28.92C155.322 29.2187 155.938 29.368 156.629 29.368C157.338 29.368 157.936 29.2093 158.421 28.892C158.906 28.5747 159.28 28.1547 159.541 27.632H163.237C162.976 28.5093 162.537 29.312 161.921 30.04C161.324 30.7493 160.577 31.3093 159.681 31.72C158.785 32.1307 157.777 32.336 156.657 32.336Z" fill="#ffffff"></path>
<rect x="24" y="51.9077" width="13.4462" height="5.66154" fill="#ffffff"></rect>
<rect x="40.2769" y="48.3692" width="13.4462" height="9.2" fill="#ffffff"></rect>
<rect x="56.554" y="42" width="13.4462" height="15.5692" fill="#ffffff"></rect>
<path d="M74.628 56V42H76.728L82.248 54.4L81.408 54.44L86.848 42H88.968V56H87.168V43.76L87.808 43.94L82.508 56H81.128L75.768 43.94L76.428 43.76V56H74.628ZM94.7174 56.24C93.9174 56.24 93.2441 56.1067 92.6974 55.84C92.1508 55.56 91.7374 55.1933 91.4574 54.74C91.1908 54.2733 91.0574 53.78 91.0574 53.26C91.0574 52.18 91.4441 51.36 92.2174 50.8C93.0041 50.2267 94.0308 49.94 95.2974 49.94C95.8574 49.94 96.3641 49.98 96.8174 50.06C97.2708 50.14 97.6441 50.2333 97.9374 50.34V49.9C97.9374 49.0467 97.7108 48.4067 97.2574 47.98C96.8174 47.54 96.2241 47.32 95.4774 47.32C94.8641 47.32 94.3308 47.4467 93.8774 47.7C93.4374 47.9533 93.1641 48.38 93.0574 48.98H91.2574C91.3374 48.2733 91.5774 47.6867 91.9774 47.22C92.3908 46.7533 92.9041 46.4067 93.5174 46.18C94.1308 45.9533 94.7841 45.84 95.4774 45.84C96.8908 45.84 97.9508 46.2133 98.6574 46.96C99.3774 47.6933 99.7374 48.6733 99.7374 49.9V52.88C99.7374 53.36 99.7641 53.7133 99.8174 53.94C99.8841 54.1667 99.9908 54.3067 100.137 54.36C100.284 54.4133 100.484 54.44 100.737 54.44H100.877V56H100.497C99.8441 56 99.3108 55.8933 98.8974 55.68C98.4841 55.4667 98.2041 55.04 98.0574 54.4C97.7508 54.92 97.3241 55.36 96.7774 55.72C96.2441 56.0667 95.5574 56.24 94.7174 56.24ZM94.9974 54.78C95.5841 54.78 96.0841 54.6333 96.4974 54.34C96.9241 54.0467 97.2574 53.66 97.4974 53.18C97.7374 52.7 97.8708 52.1933 97.8974 51.66C97.5908 51.5667 97.2174 51.4867 96.7774 51.42C96.3374 51.34 95.8974 51.3 95.4574 51.3C94.5508 51.3 93.8908 51.48 93.4774 51.84C93.0774 52.1867 92.8774 52.6267 92.8774 53.16C92.8774 53.6267 93.0574 54.0133 93.4174 54.32C93.7908 54.6267 94.3174 54.78 94.9974 54.78ZM106.974 56.24C106.027 56.24 105.174 56.02 104.414 55.58C103.667 55.14 103.074 54.5333 102.634 53.76C102.194 52.9733 101.974 52.0667 101.974 51.04C101.974 50 102.194 49.0933 102.634 48.32C103.074 47.5467 103.667 46.94 104.414 46.5C105.174 46.06 106.027 45.84 106.974 45.84C108.174 45.84 109.174 46.1533 109.974 46.78C110.787 47.3933 111.307 48.22 111.534 49.26H109.674C109.54 48.6733 109.22 48.2133 108.714 47.88C108.22 47.5467 107.64 47.38 106.974 47.38C106.427 47.38 105.907 47.52 105.414 47.8C104.934 48.08 104.547 48.4933 104.254 49.04C103.96 49.5733 103.814 50.24 103.814 51.04C103.814 51.8267 103.96 52.4933 104.254 53.04C104.547 53.5867 104.934 54 105.414 54.28C105.907 54.56 106.427 54.7 106.974 54.7C107.64 54.7 108.22 54.54 108.714 54.22C109.22 53.8867 109.54 53.42 109.674 52.82H111.534C111.32 53.8333 110.807 54.66 109.994 55.3C109.18 55.9267 108.174 56.24 106.974 56.24ZM113.451 56V41.6H115.251V47.76C115.584 47.16 116.051 46.6933 116.651 46.36C117.264 46.0133 117.931 45.84 118.651 45.84C119.811 45.84 120.731 46.2 121.411 46.92C122.104 47.64 122.451 48.7467 122.451 50.24V56H120.671V50.42C120.671 49.4067 120.464 48.6467 120.051 48.14C119.651 47.6333 119.044 47.38 118.231 47.38C117.391 47.38 116.684 47.6867 116.111 48.3C115.537 48.9 115.251 49.7533 115.251 50.86V56H113.451ZM124.937 56V46.08H126.737V56H124.937ZM124.737 44.18V41.98H126.917V44.18H124.737ZM129.136 56V46.08H130.936V47.72C131.256 47.1333 131.709 46.6733 132.296 46.34C132.882 46.0067 133.549 45.84 134.296 45.84C135.469 45.84 136.402 46.2 137.096 46.92C137.789 47.64 138.136 48.7467 138.136 50.24V56H136.336V50.42C136.336 49.4067 136.122 48.6467 135.696 48.14C135.282 47.6333 134.662 47.38 133.836 47.38C132.996 47.38 132.302 47.6867 131.756 48.3C131.209 48.9 130.936 49.7533 130.936 50.86V56H129.136ZM144.882 56.24C143.922 56.24 143.069 56.0267 142.322 55.6C141.589 55.16 141.009 54.5533 140.582 53.78C140.169 53.0067 139.962 52.1 139.962 51.06C139.962 50.0067 140.169 49.0933 140.582 48.32C140.996 47.5333 141.576 46.9267 142.322 46.5C143.069 46.06 143.929 45.84 144.902 45.84C145.876 45.84 146.709 46.06 147.402 46.5C148.109 46.9267 148.649 47.4933 149.022 48.2C149.409 48.9067 149.602 49.68 149.602 50.52C149.602 50.6533 149.602 50.8 149.602 50.96C149.602 51.1067 149.596 51.2667 149.582 51.44H141.302V50.12H147.822C147.782 49.2533 147.482 48.5733 146.922 48.08C146.376 47.5867 145.689 47.34 144.862 47.34C144.302 47.34 143.782 47.4667 143.302 47.72C142.822 47.96 142.436 48.3267 142.142 48.82C141.862 49.3 141.722 49.9 141.722 50.62V51.16C141.722 51.9467 141.869 52.6067 142.162 53.14C142.456 53.6733 142.842 54.0733 143.322 54.34C143.802 54.6067 144.316 54.74 144.862 54.74C145.529 54.74 146.089 54.5867 146.542 54.28C146.996 53.9733 147.329 53.5533 147.542 53.02H149.322C149.149 53.62 148.862 54.1667 148.462 54.66C148.062 55.1533 147.556 55.54 146.942 55.82C146.342 56.1 145.656 56.24 144.882 56.24ZM154.91 56.24C153.696 56.24 152.683 55.96 151.87 55.4C151.056 54.8267 150.583 53.9933 150.45 52.9H152.31C152.416 53.4733 152.703 53.9267 153.17 54.26C153.636 54.5933 154.236 54.76 154.97 54.76C155.663 54.76 156.196 54.6133 156.57 54.32C156.943 54.0267 157.13 53.6533 157.13 53.2C157.13 52.8667 157.01 52.6133 156.77 52.44C156.543 52.2533 156.116 52.1067 155.49 52C155.236 51.9467 154.963 51.8933 154.67 51.84C154.39 51.7867 154.123 51.74 153.87 51.7C153.416 51.6067 152.963 51.4533 152.51 51.24C152.07 51.0267 151.703 50.7267 151.41 50.34C151.116 49.9533 150.97 49.4533 150.97 48.84C150.97 47.9867 151.296 47.2733 151.95 46.7C152.603 46.1267 153.496 45.84 154.63 45.84C155.723 45.84 156.63 46.0933 157.35 46.6C158.07 47.0933 158.476 47.8667 158.57 48.92H156.79C156.736 48.3467 156.503 47.94 156.09 47.7C155.69 47.4467 155.196 47.32 154.61 47.32C154.036 47.32 153.563 47.4467 153.19 47.7C152.83 47.9533 152.65 48.2867 152.65 48.7C152.65 49.42 153.19 49.8867 154.27 50.1C154.43 50.1133 154.596 50.14 154.77 50.18C154.956 50.2067 155.143 50.24 155.33 50.28C155.516 50.3067 155.683 50.3333 155.83 50.36C156.15 50.4133 156.483 50.4933 156.83 50.6C157.176 50.6933 157.503 50.84 157.81 51.04C158.116 51.2267 158.363 51.4867 158.55 51.82C158.75 52.14 158.85 52.5533 158.85 53.06C158.85 53.6733 158.69 54.22 158.37 54.7C158.05 55.18 157.596 55.56 157.01 55.84C156.423 56.1067 155.723 56.24 154.91 56.24Z" fill="#ffffff"></path>
</svg>